<svg id="svg" version="1.1" xmlns="http://www.w3.org/2000/svg" xmlns:xlink="http://www.w3.org/1999/xlink" width="400" height="426.6666666666667" viewBox="0, 0, 400,426.6666666666667"><g id="svgg"><path id="path0" d="M164.400 2.200 L 164.400 4.400 160.900 4.420 C 148.489 4.493,147.419 4.920,146.978 9.978 L 146.703 13.133 142.851 13.393 C 140.733 13.537,138.460 13.897,137.800 14.193 C 137.140 14.490,135.813 14.942,134.851 15.197 C 132.483 15.826,131.346 17.086,130.544 19.972 L 129.869 22.400 125.811 22.400 C 120.436 22.400,120.406 22.426,120.117 27.267 L 119.888 31.106 112.444 31.295 C 102.680 31.542,102.873 31.435,102.504 36.816 L 102.290 39.930 98.245 40.120 C 88.757 40.564,86.264 41.909,85.419 47.042 L 85.149 48.683 81.208 48.941 C 75.533 49.313,75.600 49.242,75.600 54.850 L 75.600 57.600 73.100 57.623 C 71.725 57.636,68.116 57.787,65.079 57.958 C 58.225 58.345,58.309 58.282,58.075 63.191 L 57.902 66.800 54.051 66.801 C 43.963 66.802,40.811 68.530,40.802 74.064 L 40.800 75.527 36.619 75.664 C 31.413 75.833,31.438 75.810,31.261 80.619 L 31.123 84.400 25.661 84.421 C 14.243 84.463,13.929 84.597,13.677 89.491 C 13.468 93.566,13.449 93.586,9.926 93.594 C 4.763 93.606,4.756 93.618,4.756 102.200 C 4.756 110.742,4.758 110.745,10.446 111.104 L 13.492 111.297 13.712 114.503 C 14.049 119.415,15.322 119.991,25.845 119.997 L 31.089 120.000 31.296 123.638 C 31.591 128.809,31.150 128.571,40.773 128.736 L 48.719 128.871 49.003 132.839 C 49.340 137.552,49.107 137.346,54.396 137.599 L 58.592 137.800 58.901 140.000 C 59.408 143.600,61.097 145.154,64.905 145.520 C 65.956 145.621,66.914 145.860,67.032 146.052 C 67.150 146.243,74.790 146.400,84.008 146.400 C 103.974 146.400,102.400 146.849,102.400 141.155 L 102.400 137.660 110.387 137.530 C 120.097 137.372,119.677 137.597,119.925 132.409 L 120.098 128.800 124.349 128.797 C 135.300 128.789,136.658 128.208,137.313 123.247 L 137.742 120.000 141.687 120.000 C 144.922 120.000,145.827 119.863,146.716 119.237 C 147.312 118.818,148.470 118.361,149.288 118.221 C 151.970 117.765,153.326 116.121,154.172 112.300 L 154.415 111.200 158.508 111.187 C 164.081 111.170,164.161 111.099,164.336 106.019 L 164.473 102.071 172.417 101.936 C 177.967 101.841,180.508 101.653,180.848 101.313 C 181.700 100.460,182.388 97.874,182.394 95.500 L 182.400 93.200 186.167 93.200 C 188.239 93.200,190.219 93.091,190.567 92.957 C 191.139 92.738,191.200 88.260,191.200 46.357 L 191.200 0.000 177.800 0.000 L 164.400 0.000 164.400 2.200 M208.889 46.215 C 208.986 86.778,209.073 92.476,209.600 92.809 C 209.930 93.017,211.933 93.191,214.051 93.194 L 217.902 93.200 218.075 96.809 C 218.323 101.994,217.910 101.771,227.568 101.935 L 235.508 102.071 235.675 105.888 C 235.897 110.964,236.161 111.200,241.637 111.200 L 245.585 111.200 245.828 112.300 C 246.711 116.288,247.932 117.662,251.219 118.367 C 252.343 118.608,253.531 119.074,253.860 119.402 C 254.308 119.851,255.431 120.000,258.358 120.000 L 262.258 120.000 262.687 123.247 C 263.342 128.211,264.675 128.773,275.841 128.793 L 279.882 128.800 280.146 132.236 C 280.569 137.740,280.261 137.589,291.100 137.596 L 298.000 137.600 298.000 141.371 C 298.000 146.878,296.344 146.400,315.429 146.400 C 334.729 146.400,333.200 146.847,333.200 141.200 L 333.200 137.600 340.350 137.600 C 350.958 137.600,351.200 137.468,351.200 131.655 L 351.200 128.885 358.989 128.742 C 368.553 128.568,368.305 128.702,368.674 123.475 L 368.919 120.000 374.159 119.997 C 384.543 119.991,385.691 119.478,386.464 114.500 L 386.977 111.200 389.439 111.200 C 394.809 111.200,395.600 110.068,395.588 102.400 C 395.576 94.486,395.089 93.600,390.756 93.600 C 387.061 93.600,386.800 93.454,386.800 91.388 C 386.800 85.106,386.283 84.758,376.572 84.494 L 368.873 84.285 368.737 80.562 C 368.563 75.818,368.579 75.833,363.381 75.664 L 359.200 75.527 359.198 74.064 C 359.189 68.555,356.027 66.802,346.100 66.801 L 342.400 66.800 342.400 65.267 C 342.400 62.959,341.566 59.269,340.923 58.736 C 340.388 58.292,332.643 57.677,326.900 57.623 L 324.400 57.600 324.400 54.850 C 324.400 49.242,324.467 49.313,318.792 48.941 L 314.851 48.683 314.581 47.042 C 313.736 41.909,311.243 40.564,301.755 40.120 L 297.710 39.930 297.491 36.865 C 297.102 31.418,297.237 31.494,287.546 31.274 L 280.091 31.106 279.925 27.306 C 279.713 22.459,279.644 22.400,274.189 22.400 L 270.131 22.400 269.456 19.972 C 268.654 17.086,267.517 15.826,265.149 15.197 C 264.187 14.942,262.860 14.490,262.200 14.193 C 261.540 13.897,259.267 13.537,257.149 13.393 L 253.297 13.133 253.022 9.978 C 252.581 4.920,251.511 4.493,239.100 4.420 L 235.600 4.400 235.600 2.200 L 235.600 0.000 222.189 0.000 L 208.777 0.000 208.889 46.215 M0.000 213.147 L 0.000 306.400 7.900 306.398 C 15.552 306.395,20.166 305.994,20.893 305.267 C 21.357 304.803,22.368 300.535,22.386 298.963 L 22.400 297.725 28.976 297.478 C 38.289 297.128,39.129 296.662,39.572 291.600 L 39.800 289.000 43.995 288.885 C 46.302 288.822,48.363 288.597,48.575 288.385 C 48.787 288.173,49.689 287.999,50.580 287.998 C 54.871 287.992,56.568 286.498,57.042 282.310 L 57.303 280.000 61.376 280.000 C 64.896 280.000,65.566 279.891,66.308 279.200 C 66.780 278.760,67.579 278.396,68.083 278.391 C 71.056 278.363,73.510 275.905,74.164 272.300 C 74.314 271.475,74.473 270.800,74.518 270.799 C 75.716 270.791,81.466 269.477,81.908 269.111 C 84.209 267.203,84.496 259.747,84.273 207.600 C 84.056 156.467,84.280 158.215,77.757 156.755 C 76.551 156.485,75.471 156.115,75.358 155.932 C 75.245 155.750,73.273 155.600,70.976 155.600 L 66.800 155.600 66.800 152.580 C 66.800 147.128,66.558 146.953,58.600 146.653 L 53.400 146.458 51.100 144.221 C 49.084 142.260,48.800 141.793,48.800 140.441 C 48.800 138.301,48.348 138.074,43.480 137.759 L 39.200 137.482 39.177 135.841 C 39.105 130.607,36.812 129.367,26.371 128.915 L 22.543 128.750 21.971 125.317 C 21.112 120.155,21.467 120.305,9.612 120.078 L 0.000 119.894 0.000 213.147 M381.870 120.403 C 378.661 120.813,378.032 121.828,378.010 126.637 L 378.000 128.674 371.500 128.936 C 361.618 129.334,360.855 129.742,360.492 134.813 L 360.293 137.600 358.046 137.596 C 355.419 137.592,348.462 138.345,346.299 138.868 C 344.371 139.335,343.533 140.626,342.987 143.970 L 342.557 146.600 338.317 146.713 C 335.185 146.797,333.949 146.980,333.589 147.413 C 333.321 147.736,332.629 148.004,332.051 148.009 C 328.947 148.035,326.502 150.431,325.836 154.100 C 325.686 154.925,325.527 155.600,325.482 155.601 C 324.029 155.610,318.479 156.967,317.956 157.440 C 316.173 159.053,316.200 158.207,316.200 213.200 C 316.200 268.193,316.173 267.347,317.956 268.960 C 318.479 269.433,324.029 270.790,325.482 270.799 C 325.527 270.800,325.686 271.475,325.836 272.300 C 326.492 275.914,328.944 278.363,331.937 278.391 C 332.452 278.396,333.331 278.760,333.891 279.200 C 334.750 279.875,335.514 280.000,338.799 280.000 L 342.690 280.000 342.952 282.234 C 343.563 287.429,345.197 288.222,356.248 288.681 L 360.296 288.849 360.494 291.612 C 360.854 296.654,361.658 297.083,371.447 297.468 L 377.894 297.721 378.111 300.761 C 378.500 306.209,378.160 306.056,390.500 306.307 L 400.000 306.500 400.000 213.250 L 400.000 120.000 392.100 120.052 C 387.755 120.081,383.151 120.239,381.870 120.403 M67.600 280.800 C 66.920 281.480,66.800 282.133,66.800 285.164 L 66.800 288.729 58.619 288.864 C 48.927 289.025,49.470 288.745,49.200 293.718 L 49.000 297.400 41.287 297.663 C 31.285 298.003,31.219 298.050,31.203 304.900 L 31.200 306.400 27.900 306.423 C 15.047 306.513,14.029 306.924,13.702 312.152 L 13.487 315.600 10.370 315.600 C 4.713 315.600,4.729 315.574,4.729 324.200 C 4.729 332.817,4.692 332.757,10.217 333.102 L 13.507 333.307 13.677 336.857 C 13.917 341.877,14.081 341.954,24.661 341.983 L 31.123 342.000 31.261 345.781 C 31.438 350.590,31.413 350.567,36.619 350.736 L 40.800 350.873 40.802 352.336 C 40.811 357.870,43.963 359.598,54.051 359.599 L 57.902 359.600 58.073 363.164 C 58.323 368.411,59.123 368.800,69.667 368.800 L 75.600 368.800 75.600 371.550 C 75.600 377.194,76.002 377.600,81.584 377.600 L 85.130 377.600 85.410 379.300 C 86.266 384.499,88.836 385.898,98.245 386.284 L 102.289 386.449 102.503 389.574 C 102.873 394.967,102.678 394.858,112.444 395.105 L 119.888 395.294 120.117 399.133 C 120.406 403.976,120.434 404.000,125.829 404.000 L 129.905 404.000 130.373 405.860 C 131.297 409.527,133.382 411.561,136.246 411.591 C 136.711 411.596,137.550 411.960,138.109 412.400 C 138.963 413.072,139.732 413.200,142.911 413.200 L 146.697 413.200 146.975 416.388 C 147.419 421.478,148.513 421.975,159.300 421.992 L 164.400 422.000 164.400 424.200 L 164.400 426.400 177.800 426.400 L 191.200 426.400 191.200 380.429 C 191.200 327.256,191.833 333.200,186.171 333.200 L 182.400 333.200 182.400 331.377 C 182.400 329.075,181.666 325.983,180.934 325.200 C 180.480 324.715,178.846 324.574,172.424 324.464 L 164.475 324.329 164.337 320.625 C 164.153 315.656,164.095 315.600,159.180 315.600 C 154.694 315.600,154.257 315.369,153.842 312.774 C 153.460 310.382,151.607 308.639,148.808 308.039 C 147.610 307.782,146.511 307.380,146.366 307.146 C 146.221 306.911,144.218 306.623,141.915 306.505 L 137.727 306.292 137.306 303.099 C 136.656 298.174,135.403 297.677,123.500 297.617 L 120.000 297.600 119.977 294.900 C 119.928 288.945,119.879 288.917,109.500 288.847 L 102.400 288.800 102.400 285.574 C 102.400 282.493,102.001 280.948,101.040 280.306 C 99.845 279.508,68.428 279.972,67.600 280.800 M298.629 280.629 C 298.146 281.111,298.000 282.133,298.000 285.029 L 298.000 288.800 291.100 288.804 C 280.261 288.811,280.569 288.660,280.146 294.164 L 279.882 297.600 276.441 297.617 C 264.602 297.677,263.344 298.179,262.694 303.099 L 262.273 306.292 258.085 306.505 C 255.782 306.623,253.779 306.911,253.634 307.146 C 253.489 307.380,252.390 307.782,251.192 308.039 C 248.393 308.639,246.540 310.382,246.158 312.774 C 245.743 315.369,245.306 315.600,240.820 315.600 C 235.932 315.600,235.888 315.643,235.671 320.606 L 235.508 324.329 227.568 324.465 C 217.910 324.629,218.323 324.406,218.075 329.591 L 217.902 333.200 214.051 333.206 C 211.933 333.209,209.930 333.383,209.600 333.591 C 209.073 333.924,208.986 339.622,208.889 380.185 L 208.777 426.400 222.189 426.400 L 235.600 426.400 235.600 424.200 L 235.600 422.000 240.900 421.992 C 251.625 421.976,252.576 421.536,253.025 416.388 L 253.303 413.200 257.268 413.200 C 260.681 413.200,261.353 413.088,262.092 412.400 C 262.564 411.960,263.322 411.596,263.775 411.591 C 266.619 411.561,268.706 409.517,269.627 405.860 L 270.095 404.000 274.171 404.000 C 279.679 404.000,279.761 403.929,279.937 399.080 L 280.074 395.295 287.537 395.106 C 297.325 394.858,297.127 394.968,297.497 389.573 L 297.711 386.448 301.956 386.285 C 311.139 385.932,313.735 384.497,314.590 379.300 L 314.870 377.600 318.760 377.600 C 324.074 377.600,324.400 377.298,324.400 372.384 L 324.400 368.800 330.623 368.800 C 341.096 368.800,342.376 368.028,342.394 361.700 L 342.400 359.600 346.100 359.599 C 355.029 359.598,358.459 358.143,359.005 354.125 C 359.475 350.674,359.174 350.887,363.783 350.736 C 368.824 350.571,368.569 350.814,368.736 346.004 L 368.873 342.072 376.536 341.936 C 386.182 341.765,386.776 341.380,386.794 335.300 L 386.800 333.200 389.413 333.200 C 394.858 333.200,395.601 332.142,395.588 324.400 C 395.575 316.310,395.305 315.853,390.432 315.662 L 386.903 315.524 386.421 311.997 C 385.723 306.888,384.763 306.513,372.159 306.423 L 368.918 306.400 368.649 302.905 C 368.262 297.863,367.805 297.664,356.500 297.621 L 351.200 297.600 351.177 294.900 C 351.127 288.929,351.105 288.916,340.500 288.847 L 333.200 288.800 333.200 285.200 C 333.200 279.553,334.729 280.000,315.429 280.000 C 301.261 280.000,299.179 280.078,298.629 280.629 " stroke="none" fill="#fcfcfc" fill-rule="evenodd"></path><path id="path1" d="M195.443 94.532 C 193.413 95.144,192.478 96.460,192.004 99.373 C 191.513 102.395,191.531 102.386,185.600 102.396 C 175.588 102.413,174.296 103.045,173.816 108.164 L 173.532 111.200 169.594 111.200 C 165.618 111.200,164.400 111.610,164.400 112.948 C 164.400 113.218,163.770 113.667,163.000 113.946 C 160.915 114.700,159.339 116.209,158.590 118.171 L 157.922 119.920 152.981 120.060 C 146.915 120.232,147.041 120.130,146.861 125.019 L 146.723 128.800 141.861 128.828 C 130.024 128.898,129.471 129.134,129.259 134.214 L 129.118 137.600 126.659 137.603 C 123.087 137.608,115.346 138.704,114.013 139.394 C 112.762 140.040,112.183 141.393,111.774 144.621 L 111.518 146.643 107.936 147.059 C 105.769 147.310,104.116 147.712,103.753 148.076 C 102.901 148.927,102.271 154.043,102.567 157.698 C 102.976 162.735,103.481 163.421,107.084 163.827 C 108.138 163.946,109.585 164.132,110.300 164.240 L 111.600 164.436 111.600 166.831 C 111.600 172.229,112.375 172.673,122.479 173.065 L 129.158 173.324 129.410 175.562 C 130.041 181.174,131.822 181.987,143.500 181.997 L 147.600 182.000 147.600 183.023 C 147.600 187.398,150.075 190.000,154.236 190.000 C 154.960 190.000,155.664 190.180,155.800 190.400 C 155.942 190.630,158.065 190.800,160.805 190.800 L 165.564 190.800 165.836 192.300 C 166.479 195.846,168.933 198.353,171.800 198.394 C 172.240 198.400,173.140 198.763,173.800 199.200 C 174.829 199.881,175.684 199.995,179.800 199.999 L 184.600 200.003 185.346 201.816 C 186.130 203.723,187.845 205.309,189.896 206.024 C 190.569 206.258,191.207 206.785,191.314 207.194 C 191.622 208.372,194.085 208.795,200.646 208.798 C 207.657 208.800,208.800 208.377,208.800 205.779 C 208.800 204.647,209.185 204.044,211.080 202.208 L 213.360 200.000 218.918 200.000 C 225.868 200.000,226.800 199.622,226.800 196.800 C 226.800 195.188,226.943 194.888,228.018 194.253 C 228.688 193.857,229.633 192.921,230.118 192.172 L 231.000 190.810 236.926 190.805 C 243.999 190.799,244.394 190.656,244.415 188.086 C 244.429 186.406,244.571 186.112,245.710 185.395 C 246.414 184.952,247.352 184.014,247.795 183.310 L 248.600 182.031 254.611 182.015 C 261.664 181.997,262.400 181.731,262.400 179.203 C 262.400 177.857,262.690 177.362,264.598 175.454 L 266.796 173.256 273.013 173.128 C 279.912 172.986,279.983 172.957,279.994 170.308 C 280.004 167.894,283.828 164.400,286.460 164.400 C 287.648 164.400,288.480 164.194,288.680 163.851 C 288.856 163.550,290.053 163.000,291.340 162.629 C 298.399 160.595,298.332 150.097,291.249 148.284 C 288.830 147.665,288.607 147.393,288.228 144.600 C 287.785 141.334,287.226 140.034,285.987 139.394 C 284.691 138.723,276.949 137.608,273.557 137.603 L 271.315 137.600 271.057 134.825 C 270.536 129.220,270.552 129.229,260.825 128.918 L 253.273 128.677 253.137 124.958 C 252.960 120.139,253.076 120.232,247.019 120.060 L 242.078 119.920 241.410 118.171 C 240.661 116.209,239.085 114.700,237.000 113.946 C 236.120 113.627,235.600 113.177,235.600 112.734 C 235.600 111.581,234.272 111.200,230.260 111.200 L 226.468 111.200 226.184 108.164 C 225.704 103.045,224.412 102.413,214.400 102.396 C 208.469 102.386,208.487 102.395,207.996 99.373 C 207.312 95.175,205.637 94.061,200.000 94.061 C 198.350 94.061,196.299 94.273,195.443 94.532 M94.800 173.529 C 93.907 173.800,93.773 174.109,93.547 176.416 C 93.208 179.871,93.197 266.050,93.535 268.600 L 93.800 270.600 98.100 270.714 L 102.400 270.827 102.400 274.614 C 102.400 279.748,102.650 280.000,107.755 280.000 L 111.509 280.000 111.776 281.900 C 112.426 286.525,113.396 287.512,117.676 287.900 C 118.967 288.017,120.118 288.268,120.235 288.457 C 120.352 288.645,122.398 288.800,124.783 288.800 L 129.118 288.800 129.259 292.186 C 129.472 297.299,129.970 297.534,140.661 297.576 L 146.723 297.600 146.861 301.381 C 147.041 306.270,146.915 306.168,152.981 306.340 L 157.922 306.480 158.590 308.229 C 159.339 310.191,160.915 311.700,163.000 312.454 C 163.770 312.733,164.403 313.150,164.406 313.380 C 164.426 314.720,165.212 315.002,169.484 315.200 L 173.800 315.400 174.029 318.062 C 174.426 322.679,175.883 323.680,182.200 323.680 C 188.298 323.680,189.692 322.814,190.500 318.522 C 191.408 313.700,191.353 211.077,190.442 209.951 C 189.683 209.013,189.556 208.998,181.474 208.877 L 173.276 208.755 173.138 204.997 C 172.952 199.932,173.503 200.223,163.835 200.078 L 155.708 199.955 155.500 196.298 C 155.200 191.040,155.512 191.200,145.556 191.200 L 137.600 191.200 137.600 188.260 C 137.600 182.388,137.870 182.552,127.555 182.164 L 120.110 181.885 119.867 178.739 C 119.605 175.341,119.220 174.258,118.111 173.801 C 117.134 173.397,96.042 173.152,94.800 173.529 M282.000 173.474 C 280.680 173.715,280.000 174.659,280.000 176.250 C 280.000 177.287,279.565 177.983,277.838 179.710 L 275.675 181.873 269.596 182.122 C 262.748 182.403,262.400 182.542,262.400 185.003 C 262.400 186.422,262.215 186.829,261.300 187.427 C 259.924 188.327,259.527 188.724,258.627 190.100 L 257.908 191.200 251.854 191.206 C 244.857 191.213,244.855 191.214,244.541 193.873 C 244.342 195.548,244.106 196.001,243.133 196.576 C 242.490 196.956,241.568 197.870,241.085 198.607 L 240.206 199.948 233.888 200.074 C 226.816 200.215,226.817 200.215,226.806 203.073 C 226.801 204.394,226.631 204.800,225.996 205.001 C 225.554 205.141,224.539 206.038,223.741 206.993 L 222.289 208.730 216.164 208.865 C 211.825 208.961,209.887 209.152,209.519 209.520 C 208.690 210.350,208.539 310.749,209.358 316.629 C 210.239 322.949,211.114 323.680,217.800 323.680 C 224.117 323.680,225.574 322.679,225.971 318.062 L 226.200 315.400 230.800 315.153 C 236.186 314.863,235.600 315.018,235.600 313.880 C 235.600 313.192,235.953 312.833,237.000 312.454 C 239.088 311.699,240.661 310.190,241.413 308.220 L 242.084 306.463 247.023 306.332 C 253.080 306.170,252.959 306.267,253.137 301.418 L 253.275 297.674 260.756 297.537 C 270.424 297.360,271.200 296.846,271.200 290.623 L 271.200 288.800 275.600 288.800 C 278.020 288.800,280.000 288.645,280.000 288.456 C 280.000 288.266,281.051 288.016,282.335 287.899 C 286.603 287.512,287.575 286.523,288.224 281.900 L 288.491 280.000 292.501 280.000 C 297.551 280.000,297.570 279.980,297.587 274.700 L 297.600 270.800 301.567 270.800 C 303.749 270.800,305.819 270.691,306.167 270.557 C 306.910 270.272,307.148 175.170,306.409 174.000 C 306.037 173.411,284.850 172.955,282.000 173.474 " stroke="none" fill="#f4742c" fill-rule="evenodd"></path><path id="path2" d="" stroke="none" fill="#f8100c8" fill-rule="evenodd"></path><path id="path3" d="" stroke="none" fill="#f8100c8" fill-rule="evenodd"></path><path id="path4" d="" stroke="none" fill="#f8100c8" fill-rule="evenodd"></path></g></svg>